<svg width="100" height="100" viewBox="0 0 100 100" fill="none" xmlns="http://www.w3.org/2000/svg">
<path d="M71.8213 17.5776L71.5325 33.2113C71.4913 35.3563 72.8525 38.2026 74.585 39.4813L84.815 47.2363C91.3738 52.1863 90.3013 58.2501 82.4638 60.7251L69.14 64.8913C66.9125 65.5926 64.5613 68.0263 63.9838 70.2951L60.8075 82.4226C58.2913 91.9926 52.0213 92.9413 46.8238 84.5263L39.5638 72.7701C38.2438 70.6251 35.1088 69.0163 32.6338 69.1401L18.8563 69.8413C8.99752 70.3363 6.19252 64.6438 12.6275 57.1363L20.795 47.6488C22.3213 45.8751 23.0225 42.5751 22.3213 40.3476L18.1138 26.9826C15.68 19.1451 20.0525 14.8138 27.8488 17.3713L40.0175 21.3726C42.08 22.0326 45.1738 21.5788 46.9063 20.3001L59.6113 11.1426C66.5 6.23381 71.9863 9.12131 71.8213 17.5776Z" fill="#FCCB06"/>
<path d="M88.9399 84.9388L76.4412 72.44C75.859 71.8647 75.0735 71.542 74.2549 71.542C73.4364 71.542 72.6509 71.8647 72.0687 72.44C70.8724 73.6363 70.8724 75.6163 72.0687 76.8125L84.5674 89.3113C85.1862 89.93 85.9699 90.2188 86.7537 90.2188C87.5374 90.2188 88.3212 89.93 88.9399 89.3113C90.1362 88.115 90.1362 86.135 88.9399 84.9388Z" fill="#FCCB06"/>
</svg>
