<svg width="100" height="99" viewBox="0 0 100 99" fill="none" xmlns="http://www.w3.org/2000/svg">
<path d="M70.625 8.25H29.375C17.99 8.25 8.75 17.4488 8.75 28.7925V57.585C8.75 68.9287 17.99 78.1275 29.375 78.1275H35.5625C36.6763 78.1275 38.1613 78.87 38.8625 79.7775L45.05 87.9863C47.7725 91.6162 52.2275 91.6162 54.95 87.9863L61.1375 79.7775C61.9212 78.7463 63.1587 78.1275 64.4375 78.1275H70.625C82.01 78.1275 91.25 68.9287 91.25 57.585V28.7925C91.25 17.4488 82.01 8.25 70.625 8.25ZM33.5 49.5C31.19 49.5 29.375 47.6437 29.375 45.375C29.375 43.1063 31.2313 41.25 33.5 41.25C35.7687 41.25 37.625 43.1063 37.625 45.375C37.625 47.6437 35.81 49.5 33.5 49.5ZM50 49.5C47.69 49.5 45.875 47.6437 45.875 45.375C45.875 43.1063 47.7313 41.25 50 41.25C52.2687 41.25 54.125 43.1063 54.125 45.375C54.125 47.6437 52.31 49.5 50 49.5ZM66.5 49.5C64.19 49.5 62.375 47.6437 62.375 45.375C62.375 43.1063 64.2313 41.25 66.5 41.25C68.7687 41.25 70.625 43.1063 70.625 45.375C70.625 47.6437 68.81 49.5 66.5 49.5Z" fill="#FCCB06"/>
</svg>
