<svg width="100" height="100" viewBox="0 0 100 100" fill="none" xmlns="http://www.w3.org/2000/svg">
<path d="M37.625 8.75C26.8175 8.75 18.0313 17.5362 18.0313 28.3437C18.0313 38.945 26.3225 47.525 37.13 47.8962C37.46 47.855 37.79 47.855 38.0375 47.8962H38.3263C43.3974 47.727 48.2039 45.5923 51.7296 41.9435C55.2553 38.2946 57.2237 33.4177 57.2188 28.3437C57.2188 17.5362 48.4325 8.75 37.625 8.75ZM58.58 58.8646C47.0713 51.1921 28.3025 51.1921 16.7113 58.8646C11.4725 62.3709 8.58502 67.1146 8.58502 72.1884C8.58502 77.2621 11.4725 81.9646 16.67 85.4296C22.445 89.3071 30.035 91.2459 37.625 91.2459C45.215 91.2459 52.805 89.3071 58.58 85.4296C63.7775 81.9234 66.665 77.2209 66.665 72.1059C66.6238 67.0321 63.7775 62.3296 58.58 58.8646ZM82.9588 30.7692C83.6188 38.7717 77.9263 45.7842 70.0475 46.733H69.8413C69.5938 46.733 69.3463 46.733 69.14 46.8155C65.1388 47.0217 61.4675 45.743 58.7038 43.3917C62.9525 39.5967 65.3863 33.9042 64.8913 27.7167C64.6082 24.4993 63.5156 21.4057 61.715 18.7242C63.8765 17.6727 66.2613 17.1628 68.6638 17.2385C71.0662 17.3142 73.4142 17.9733 75.5052 19.1588C77.5961 20.3444 79.3673 22.0208 80.6658 24.0436C81.9644 26.0663 82.7513 28.3745 82.9588 30.7692Z" fill="#FCCB06"/>
<path d="M91.2005 68.9338C90.8705 72.935 88.313 76.4 84.023 78.7513C79.898 81.02 74.7005 82.0925 69.5443 81.9688C72.5143 79.2875 74.2468 75.9463 74.5768 72.3988C74.9893 67.2838 72.5555 62.375 67.688 58.4563C64.9243 56.27 61.7068 54.5375 58.2005 53.2588C67.3168 50.6188 78.7843 52.3925 85.838 58.085C89.633 61.1375 91.5718 64.9738 91.2005 68.9338Z" fill="#FCCB06"/>
</svg>
