<svg width="100" height="99" viewBox="0 0 100 99" fill="none" xmlns="http://www.w3.org/2000/svg">
<path d="M86.7537 45.8699V27.7612C86.7537 24.3787 84.1962 20.5424 81.02 19.2637L58.0437 9.85869C52.8733 7.75478 47.0854 7.75478 41.915 9.85869L18.9387 19.2637C15.8037 20.5424 13.2462 24.3787 13.2462 27.7612V45.8699C13.2462 66.0412 27.89 84.9337 47.8962 90.4612C49.2575 90.8324 50.7425 90.8324 52.1037 90.4612C72.11 84.9337 86.7537 66.0412 86.7537 45.8699ZM53.0937 53.0887V63.9374C53.0937 65.6287 51.6912 67.0312 50 67.0312C48.3087 67.0312 46.9062 65.6287 46.9062 63.9374V53.0887C44.8218 52.4352 42.999 51.1359 41.7014 49.3786C40.4038 47.6213 39.6985 45.4969 39.6875 43.3124C39.6875 40.5774 40.774 37.9544 42.7079 36.0204C44.6419 34.0864 47.2649 32.9999 50 32.9999C52.735 32.9999 55.358 34.0864 57.292 36.0204C59.226 37.9544 60.3125 40.5774 60.3125 43.3124C60.3125 47.9324 57.26 51.7687 53.0937 53.0887Z" fill="#FCCB06"/>
</svg>
